<svg id="app-indicator" xmlns="http://www.w3.org/2000/svg" width="30.673" height="30.673" viewBox="0 0 30.673 30.673">
  <path id="Trazado_1" data-name="Trazado 1" d="M10.2,3.045A7.157,7.157,0,0,0,3.045,10.2V20.426A7.157,7.157,0,0,0,10.2,27.583H20.426a7.157,7.157,0,0,0,7.157-7.157V15.314a1.022,1.022,0,0,1,2.045,0v5.112a9.2,9.2,0,0,1-9.2,9.2H10.2a9.2,9.2,0,0,1-9.2-9.2V10.2A9.2,9.2,0,0,1,10.2,1h5.112a1.022,1.022,0,1,1,0,2.045Z" transform="translate(-1 1.045)" fill="#1d2cff"/>
  <path id="Trazado_2" data-name="Trazado 2" d="M22.269,6.135A6.135,6.135,0,1,1,16.135,0a6.135,6.135,0,0,1,6.135,6.135Z" transform="translate(8.404)" fill="#1d2cff"/>
</svg>
