<svg xmlns="http://www.w3.org/2000/svg" xmlns:xlink="http://www.w3.org/1999/xlink" width="30" height="30" viewBox="0 0 30 30">
  <defs>
    <clipPath id="clip-Conectado">
      <rect width="30" height="30"/>
    </clipPath>
  </defs>
  <g id="Conectado" clip-path="url(#clip-Conectado)">
    <g id="wifi_1_" data-name="wifi (1)" transform="translate(0 5)">
      <path id="Trazado_13" data-name="Trazado 13" d="M29.562,9.076A.946.946,0,0,0,29.47,7.64a24.388,24.388,0,0,0-28.622,0A.946.946,0,0,0,.754,9.076a1.01,1.01,0,0,0,1.3.1,22.437,22.437,0,0,1,26.2,0A1.009,1.009,0,0,0,29.562,9.076Z" transform="translate(-0.468 -3)" fill="#1d2cff"/>
      <path id="Trazado_14" data-name="Trazado 14" d="M23.311,10.43a.94.94,0,0,0-.123-1.453,18.544,18.544,0,0,0-20.153,0,.936.936,0,0,0-.123,1.453,1.024,1.024,0,0,0,1.272.127,16.592,16.592,0,0,1,17.853,0,1.025,1.025,0,0,0,1.274-.127Zm-4.258,4.258a.909.909,0,0,0-.2-1.463,12.71,12.71,0,0,0-11.492,0,.909.909,0,0,0-.2,1.463l.029.029a1.037,1.037,0,0,0,1.192.176,10.754,10.754,0,0,1,9.44,0,1.032,1.032,0,0,0,1.19-.177Zm-3.874,3.874a.81.81,0,0,0-.078-1.287,3.9,3.9,0,0,0-3.979,0,.81.81,0,0,0-.078,1.287l1.377,1.377a.975.975,0,0,0,1.379,0l1.379-1.379Z" transform="translate(1.579 -0.148)" fill="#1d2cff"/>
    </g>
  </g>
</svg>
