<svg xmlns="http://www.w3.org/2000/svg" xmlns:xlink="http://www.w3.org/1999/xlink" width="30" height="30" viewBox="0 0 30 30">
  <defs>
    <clipPath id="clip-Desconectado">
      <rect width="30" height="30"/>
    </clipPath>
  </defs>
  <g id="Desconectado" clip-path="url(#clip-Desconectado)">
    <path id="wifi-off" d="M20.437,4.79A24.435,24.435,0,0,0,.848,8.857a.946.946,0,0,0-.094,1.436,1.01,1.01,0,0,0,1.3.1A22.5,22.5,0,0,1,18.771,6.456Zm-5.278,5.278A18.428,18.428,0,0,0,5.083,13.045.936.936,0,0,0,4.96,14.5a1.024,1.024,0,0,0,1.272.127,16.478,16.478,0,0,1,6.846-2.477Zm5.064,2.739,1.531-1.531a18.487,18.487,0,0,1,3.482,1.769.94.94,0,0,1,.123,1.453,1.024,1.024,0,0,1-1.272.127,16.505,16.505,0,0,0-3.862-1.818Zm-5.064,5.064,1.82-1.82a12.591,12.591,0,0,1,3.926,1.242.909.909,0,0,1,.2,1.463l-.029.029a1.038,1.038,0,0,1-1.192.176A10.685,10.685,0,0,0,15.159,17.871ZM24.726,8.3l1.457-1.457A24.711,24.711,0,0,1,29.47,8.855a.946.946,0,0,1,.092,1.438,1.01,1.01,0,0,1-1.3.1A22.418,22.418,0,0,0,24.726,8.3ZM17.148,21.342a.81.81,0,0,1,.078,1.287l-1.379,1.377a.975.975,0,0,1-1.379,0l-1.379-1.379a.813.813,0,0,1,.078-1.287,3.91,3.91,0,0,1,3.983,0Zm8.494-19.32a1.034,1.034,0,0,1,1.463,1.463L6.138,24.454a1.034,1.034,0,1,1-1.463-1.463Z" transform="translate(-0.468 1.28)" fill="#8b8b8b"/>
  </g>
</svg>
