<svg id="gear_1_" data-name="gear (1)" xmlns="http://www.w3.org/2000/svg" width="30" height="30" viewBox="0 0 30 30">
  <path id="Trazado_7" data-name="Trazado 7" d="M11.214,4.754a6.46,6.46,0,1,0,6.46,6.46,6.46,6.46,0,0,0-6.46-6.46Zm-4.47,6.46a4.47,4.47,0,1,1,4.47,4.47,4.47,4.47,0,0,1-4.47-4.47Z" transform="translate(3.786 3.786)" fill="#1d2cff"/>
  <path id="Trazado_8" data-name="Trazado 8" d="M18.368,2.518a3.511,3.511,0,0,0-6.735,0l-.176.6A1.637,1.637,0,0,1,9.1,4.091l-.548-.3A3.512,3.512,0,0,0,3.793,8.556l.3.548a1.637,1.637,0,0,1-.975,2.353l-.6.176a3.511,3.511,0,0,0,0,6.735l.6.176A1.637,1.637,0,0,1,4.091,20.9l-.3.548a3.512,3.512,0,0,0,4.765,4.763l.548-.3a1.637,1.637,0,0,1,2.353.975l.176.6a3.511,3.511,0,0,0,6.735,0l.176-.6A1.637,1.637,0,0,1,20.9,25.91l.548.3a3.512,3.512,0,0,0,4.763-4.765l-.3-.548a1.637,1.637,0,0,1,.975-2.353l.6-.176a3.511,3.511,0,0,0,0-6.735l-.6-.176A1.637,1.637,0,0,1,25.91,9.1l.3-.548a3.512,3.512,0,0,0-4.765-4.763l-.548.3a1.637,1.637,0,0,1-2.353-.975l-.176-.6Zm-4.937.531a1.636,1.636,0,0,1,3.139,0l.176.6A3.512,3.512,0,0,0,21.8,5.737l.546-.3a1.638,1.638,0,0,1,2.22,2.222l-.3.548a3.512,3.512,0,0,0,2.093,5.048l.6.176a1.636,1.636,0,0,1,0,3.139l-.6.176a3.512,3.512,0,0,0-2.091,5.05l.3.546a1.638,1.638,0,0,1-2.222,2.22l-.546-.3a3.512,3.512,0,0,0-5.05,2.093l-.176.6a1.636,1.636,0,0,1-3.139,0l-.176-.6a3.512,3.512,0,0,0-5.048-2.091l-.548.3a1.638,1.638,0,0,1-2.22-2.222l.3-.546a3.512,3.512,0,0,0-2.091-5.052l-.6-.176a1.636,1.636,0,0,1,0-3.139l.6-.176A3.512,3.512,0,0,0,5.737,8.207l-.3-.548a1.638,1.638,0,0,1,2.222-2.22l.548.3a3.512,3.512,0,0,0,5.048-2.091l.176-.6Z" transform="translate(0 0)" fill="#1d2cff"/>
</svg>
