<svg id="house" xmlns="http://www.w3.org/2000/svg" width="30.676" height="28.204" viewBox="0 0 30.676 28.204">
  <path id="Trazado_3" data-name="Trazado 3" d="M2,25.516V12.224H4.045V25.516a1.022,1.022,0,0,0,1.022,1.022h18.4a1.022,1.022,0,0,0,1.022-1.022V12.224h2.045V25.516a3.067,3.067,0,0,1-3.067,3.067H5.067A3.067,3.067,0,0,1,2,25.516ZM24.494,3.022v7.157L20.4,6.09V3.022A1.022,1.022,0,0,1,21.426,2h2.045A1.022,1.022,0,0,1,24.494,3.022Z" transform="translate(1.069 -0.379)" fill="#1d2cff" fill-rule="evenodd"/>
  <path id="Trazado_4" data-name="Trazado 4" d="M14.391,1.806a2.045,2.045,0,0,1,2.891,0L30.875,15.4a1.024,1.024,0,0,1-1.448,1.448L15.837,3.252,2.247,16.844A1.024,1.024,0,1,1,.8,15.4Z" transform="translate(-0.499 -1.207)" fill="#1d2cff" fill-rule="evenodd"/>
</svg>
