<svg xmlns="http://www.w3.org/2000/svg" xmlns:xlink="http://www.w3.org/1999/xlink" width="28" height="28" viewBox="0 0 28 28">
  <defs>
    <clipPath id="clip-mareas">
      <rect width="28" height="28"/>
    </clipPath>
  </defs>
  <g id="mareas" clip-path="url(#clip-mareas)">
    <rect width="28" height="28" fill="#fff"/>
    <path id="water" d="M.063,3.55A.875.875,0,0,1,1.2,3.063l3.075,1.23a2.625,2.625,0,0,0,1.949,0L8,3.583a4.375,4.375,0,0,1,3.25,0l1.776.71a2.625,2.625,0,0,0,1.949,0l1.774-.71a4.375,4.375,0,0,1,3.25,0l1.776.71a2.625,2.625,0,0,0,1.949,0L26.8,3.063a.875.875,0,1,1,.651,1.624l-3.077,1.23a4.375,4.375,0,0,1-3.25,0l-1.774-.71a2.625,2.625,0,0,0-1.949,0l-1.776.71a4.375,4.375,0,0,1-3.25,0L10.6,5.207a2.625,2.625,0,0,0-1.949,0l-1.776.71a4.375,4.375,0,0,1-3.25,0L.549,4.687A.875.875,0,0,1,.063,3.55Zm0,5.25A.875.875,0,0,1,1.2,8.313l3.075,1.23a2.625,2.625,0,0,0,1.949,0L8,8.833a4.375,4.375,0,0,1,3.25,0l1.776.71a2.625,2.625,0,0,0,1.949,0l1.774-.71a4.375,4.375,0,0,1,3.25,0l1.776.71a2.625,2.625,0,0,0,1.949,0L26.8,8.313a.875.875,0,1,1,.651,1.624l-3.077,1.23a4.375,4.375,0,0,1-3.25,0l-1.774-.71a2.625,2.625,0,0,0-1.949,0l-1.776.71a4.375,4.375,0,0,1-3.25,0l-1.774-.71a2.625,2.625,0,0,0-1.949,0l-1.776.71a4.375,4.375,0,0,1-3.25,0L.549,9.937A.875.875,0,0,1,.063,8.8Zm0,5.25A.875.875,0,0,1,1.2,13.563l3.075,1.23a2.625,2.625,0,0,0,1.949,0L8,14.083a4.375,4.375,0,0,1,3.25,0l1.776.71a2.625,2.625,0,0,0,1.949,0l1.774-.71a4.375,4.375,0,0,1,3.25,0l1.776.71a2.625,2.625,0,0,0,1.949,0l3.075-1.23a.875.875,0,1,1,.651,1.624l-3.077,1.23a4.375,4.375,0,0,1-3.25,0l-1.774-.71a2.625,2.625,0,0,0-1.949,0l-1.776.71a4.375,4.375,0,0,1-3.25,0l-1.774-.71a2.625,2.625,0,0,0-1.949,0l-1.776.71a4.375,4.375,0,0,1-3.25,0L.549,15.187a.875.875,0,0,1-.486-1.137Zm0,5.25A.875.875,0,0,1,1.2,18.813l3.075,1.23a2.625,2.625,0,0,0,1.949,0L8,19.333a4.375,4.375,0,0,1,3.25,0l1.776.71a2.625,2.625,0,0,0,1.949,0l1.774-.71a4.375,4.375,0,0,1,3.25,0l1.776.71a2.625,2.625,0,0,0,1.949,0l3.075-1.23a.875.875,0,1,1,.651,1.624l-3.077,1.23a4.375,4.375,0,0,1-3.25,0l-1.774-.71a2.625,2.625,0,0,0-1.949,0l-1.776.71a4.375,4.375,0,0,1-3.25,0l-1.774-.71a2.625,2.625,0,0,0-1.949,0l-1.776.71a4.375,4.375,0,0,1-3.25,0L.549,20.437A.875.875,0,0,1,.063,19.3Z" transform="translate(0 2)"/>
  </g>
</svg>
