<svg xmlns="http://www.w3.org/2000/svg" xmlns:xlink="http://www.w3.org/1999/xlink" width="28" height="28" viewBox="0 0 28 28">
  <defs>
    <clipPath id="clip-profundidadesminimas">
      <rect width="28" height="28"/>
    </clipPath>
  </defs>
  <g id="profundidadesminimas" clip-path="url(#clip-profundidadesminimas)">
    <rect width="28" height="28" fill="#fff"/>
    <path id="water" d="M.063,3.55A.875.875,0,0,1,1.2,3.063l3.075,1.23a2.625,2.625,0,0,0,1.949,0L8,3.583a4.375,4.375,0,0,1,3.25,0l1.776.71a2.625,2.625,0,0,0,1.949,0l1.774-.71a4.375,4.375,0,0,1,3.25,0l1.776.71a2.625,2.625,0,0,0,1.949,0L26.8,3.063a.875.875,0,1,1,.651,1.624l-3.077,1.23a4.375,4.375,0,0,1-3.25,0l-1.774-.71a2.625,2.625,0,0,0-1.949,0l-1.776.71a4.375,4.375,0,0,1-3.25,0L10.6,5.207a2.625,2.625,0,0,0-1.949,0l-1.776.71a4.375,4.375,0,0,1-3.25,0L.549,4.687A.875.875,0,0,1,.063,3.55Zm1,5.25A.875.875,0,0,1,2.2,8.313l3.075,1.23a2.625,2.625,0,0,0,1.949,0L9,8.833c1.043-.417,1.277,1.374.651,1.624l-1.776.71a4.375,4.375,0,0,1-3.25,0L1.549,9.937A.875.875,0,0,1,1.063,8.8Zm0,5.25A.875.875,0,0,1,2.2,13.563l3.075,1.23a2.625,2.625,0,0,0,1.949,0L9,14.083c1.043-.417,1.277,1.374.651,1.624l-1.776.71a4.375,4.375,0,0,1-3.25,0l-3.075-1.23A.875.875,0,0,1,1.063,14.049Zm0,5.25A.875.875,0,0,1,2.2,18.813l3.075,1.23a2.625,2.625,0,0,0,1.949,0L9,19.333c1.043-.417,1.277,1.374.651,1.624l-1.776.71a4.375,4.375,0,0,1-3.25,0l-3.075-1.23A.875.875,0,0,1,1.063,19.3Z" transform="translate(0 2)"/>
    <path id="dash-circle-fill" d="M16,8A8,8,0,1,1,8,0a8,8,0,0,1,8,8ZM4.5,7.5a.5.5,0,0,0,0,1h7a.5.5,0,0,0,0-1Z" transform="translate(12 10)"/>
  </g>
</svg>
